<svg width="89" height="16" viewBox="0 0 89 16" fill="none" xmlns="http://www.w3.org/2000/svg">
<path d="M86.6565 9.25642C86.6565 8.86605 86.5465 8.55633 86.3266 8.33091C86.1122 8.10549 85.8501 7.99186 85.5385 7.99186C85.227 7.99186 84.9612 8.10549 84.7413 8.33091C84.5269 8.55083 84.4206 8.85689 84.4206 9.24725C84.4206 9.63761 84.5269 9.94917 84.7413 10.1819C84.9612 10.4073 85.227 10.521 85.5385 10.521C85.8501 10.521 86.1122 10.4073 86.3266 10.1819C86.5465 9.9565 86.6565 9.64678 86.6565 9.25642ZM82.8261 9.24725C82.8261 8.72127 82.9233 8.26127 83.1194 7.86357C83.321 7.46588 83.5922 7.16165 83.9349 6.94723C84.2776 6.73281 84.6588 6.62651 85.0803 6.62651C85.4157 6.62651 85.7218 6.69615 85.9967 6.83727C86.2771 6.97839 86.497 7.16715 86.6565 7.4054V5.03207H88.2234V11.813H86.6565V11.0799C86.5098 11.3237 86.2991 11.5198 86.0242 11.6664C85.7548 11.813 85.4414 11.8863 85.0803 11.8863C84.6588 11.8863 84.2776 11.78 83.9349 11.5656C83.5922 11.3457 83.321 11.0378 83.1194 10.6401C82.9233 10.2369 82.8261 9.77323 82.8261 9.24725ZM80.0789 6.64484C80.6782 6.64484 81.1547 6.84093 81.5084 7.2313C81.8695 7.61616 82.0491 8.14764 82.0491 8.82573V11.813H80.4913V9.03649C80.4913 8.69378 80.4033 8.42804 80.2256 8.23927C80.0478 8.05051 79.8095 7.95521 79.5108 7.95521C79.2121 7.95521 78.9738 8.05051 78.7961 8.23927C78.6183 8.42804 78.5303 8.69378 78.5303 9.03649V11.813H76.9634V6.69982H78.5303V7.37791C78.6898 7.15249 78.9024 6.97472 79.1718 6.84643C79.4412 6.71265 79.7436 6.64484 80.0789 6.64484ZM74.262 9.25642C74.262 8.86605 74.152 8.55633 73.9321 8.33091C73.7177 8.10549 73.4556 7.99186 73.1441 7.99186C72.8325 7.99186 72.5668 8.10549 72.3468 8.33091C72.1324 8.55083 72.0261 8.85689 72.0261 9.24725C72.0261 9.63761 72.1324 9.94917 72.3468 10.1819C72.5668 10.4073 72.8325 10.521 73.1441 10.521C73.4556 10.521 73.7177 10.4073 73.9321 10.1819C74.152 9.9565 74.262 9.64678 74.262 9.25642ZM70.4317 9.24725C70.4317 8.72127 70.5288 8.26127 70.7249 7.86357C70.9265 7.46588 71.1977 7.16165 71.5405 6.94723C71.8832 6.73281 72.2644 6.62651 72.6859 6.62651C73.0469 6.62651 73.3603 6.69982 73.6297 6.84643C73.9046 6.99305 74.1154 7.18548 74.262 7.42373V6.69982H75.829V11.813H74.262V11.0891C74.1099 11.3274 73.8955 11.5198 73.6206 11.6664C73.3512 11.813 73.0378 11.8863 72.6767 11.8863C72.2607 11.8863 71.8832 11.78 71.5405 11.5656C71.1977 11.3457 70.9265 11.0378 70.7249 10.6401C70.5307 10.2369 70.4317 9.77323 70.4317 9.24725ZM68.3919 7.55202C68.5752 7.27162 68.8043 7.05169 69.0792 6.89225C69.3541 6.72731 69.6601 6.64484 69.9955 6.64484V8.30342H69.5648C69.1745 8.30342 68.8812 8.38955 68.6851 8.55999C68.489 8.72494 68.3919 9.01817 68.3919 9.43968V11.813H66.825V6.69982H68.3919V7.55202ZM64.4077 9.24725C64.4077 8.85689 64.2977 8.55083 64.0778 8.33091C63.8633 8.10549 63.5976 7.99186 63.2806 7.99186C62.969 7.99186 62.7033 8.10549 62.4833 8.33091C62.2689 8.55633 62.1626 8.86605 62.1626 9.25642C62.1626 9.64678 62.2689 9.9565 62.4833 10.1819C62.7033 10.4073 62.969 10.521 63.2806 10.521C63.5921 10.521 63.8578 10.4073 64.0778 10.1819C64.2977 9.94917 64.4077 9.63761 64.4077 9.24725ZM62.1718 7.42373C62.3184 7.18548 62.5291 6.99305 62.8041 6.84643C63.079 6.69982 63.3942 6.62651 63.7479 6.62651C64.1694 6.62651 64.5506 6.73281 64.8933 6.94723C65.236 7.16165 65.5036 7.46588 65.6997 7.86357C65.9013 8.26127 66.0021 8.72127 66.0021 9.24725C66.0021 9.77323 65.9013 10.2369 65.6997 10.6401C65.5036 11.0378 65.236 11.3457 64.8933 11.5656C64.5506 11.78 64.1694 11.8863 63.7479 11.8863C63.3869 11.8863 63.0735 11.8167 62.8041 11.6756C62.5346 11.5289 62.3239 11.3365 62.1718 11.0983V11.813H60.6048V5.03207H62.1718V7.42373ZM5.20274 9.46717L4.40552 7.11217L3.61747 9.46717H5.20274ZM5.60593 10.6767H3.20511L2.82025 11.813H1.17999L3.50751 5.38028H5.32186L7.64937 11.813H5.99079L5.60593 10.6767Z" fill="white"/>
<path d="M53.2778 1.15777C51.3993 0.589642 48.5641 1.53714 48.1059 4.3045C47.7027 6.73464 49.409 8.65896 51.0822 9.64128C48.8793 9.12446 47.426 9.41402 46.9074 10.882C46.3209 12.5406 48.2361 14.7563 50.5269 14.9707C54.1868 15.3153 56.0158 12.5443 55.9773 10.5576C55.9223 7.63082 52.3211 5.47741 52.3211 5.47741C54.0768 6.01073 55.6089 6.03272 56.1661 4.74434C56.6261 3.68505 55.8197 1.9275 53.2778 1.15777Z" fill="#F04949"/>
<path d="M18.0389 1.71124C15.8727 0.430188 13.065 0.92318 11.6373 2.84383C10.2097 4.76449 10.3361 7.34491 10.7503 9.04748C11.6941 12.9328 13.8237 15.2804 15.6674 14.9634C17.15 14.7105 17.6925 12.6909 16.7084 10.3762C19.5142 9.6376 20.5002 7.07734 20.3133 5.34545C20.1208 3.56591 19.1788 2.38566 18.0389 1.71124Z" fill="#F04949"/>
<path d="M26.2841 1.07712C28.5072 1.02581 30.109 3.19571 30.9868 5.83295C31.9746 8.79823 33.3125 14.102 30.4022 14.5657C27.8639 14.9689 26.4894 10.794 26.4894 10.794C26.4894 10.794 25.727 15.4381 22.923 14.8772C21.3725 14.5675 20.6523 11.8405 21.2168 8.62413C22.2009 3.03993 24.1124 1.12661 26.2841 1.07712Z" fill="#F04949"/>
<path d="M45.4613 1.63795C43.5187 1.28058 42.3439 4.55009 42.3439 4.55009C42.3439 4.55009 41.7813 1.07532 39.6865 1.07532C37.5918 1.07532 36.9778 4.60141 36.9778 4.60141C36.9778 4.60141 35.957 1.58664 34.117 1.63795C32.836 1.67277 32.2348 3.40833 32.5849 5.70102C33.5049 11.7306 35.651 14.9231 37.031 14.9231C38.257 14.9231 39.0249 13.7227 39.6371 11.397C40.3023 13.6714 41.0684 14.8901 42.1405 14.8901C44.5926 14.8901 45.8187 10.0188 46.5866 6.46708C47.0301 4.41081 47.1071 1.94035 45.4613 1.63795Z" fill="#F04949"/>
</svg>
